<svg xmlns="http://www.w3.org/2000/svg" version="1.1" xmlns:xlink="http://www.w3.org/1999/xlink" xmlns:svgjs="http://svgjs.dev/svgjs" width="1440" height="560" preserveAspectRatio="none" viewBox="0 0 1440 560"><g mask="url(&quot;#SvgjsMask1060&quot;)" fill="none"><rect width="1440" height="560" x="0" y="0" fill="#1e3266"></rect><path d="M1512 560L0 560 L0 185.92Q-0.78 113.14, 72 112.36Q149.73 70.09, 192 147.82Q286.96 170.78, 264 265.74Q224.68 154.42, 336 115.1Q444.16 103.26, 456 211.43Q469.29 152.72, 528 166.01Q548.97 114.98, 600 135.95Q649.71 65.66, 720 115.36Q783.68 107.04, 792 170.73Q890.19 148.92, 912 247.11Q938.79 201.9, 984 228.69Q1030.43 155.13, 1104 201.56Q1111.18 136.74, 1176 143.92Q1199.87 95.79, 1248 119.66Q1355.21 154.87, 1320 262.08Q1315.98 138.06, 1440 134.04Q1465.35 87.38, 1512 112.73z" fill="rgba(219, 230, 251, 1)"></path><path d="M1488 560L0 560 L0 275.6Q44.5 248.1, 72 292.6Q156.35 256.95, 192 341.3Q220.3 297.6, 264 325.9Q350.05 291.94, 384 377.99Q400 273.99, 504 289.98Q509.86 223.84, 576 229.7Q646.34 180.04, 696 250.38Q772.25 206.63, 816 282.88Q922.63 269.51, 936 376.15Q965.78 333.93, 1008 363.71Q1012.23 295.94, 1080 300.17Q1080.84 229, 1152 229.84Q1198.82 204.66, 1224 251.48Q1314.07 269.55, 1296 359.62Q1287.78 279.39, 1368 271.17Q1409.6 192.77, 1488 234.37z" fill="rgba(107, 138, 189, 1)"></path><path d="M1536 560L0 560 L0 409.01Q48.43 337.44, 120 385.86Q165.52 311.38, 240 356.9Q297.68 342.58, 312 400.26Q366.77 335.03, 432 389.81Q496.79 382.6, 504 447.39Q529.82 401.21, 576 427.03Q662.54 393.57, 696 480.11Q713.21 425.31, 768 442.52Q761.8 364.31, 840 358.11Q866.58 312.69, 912 339.27Q1012.5 319.76, 1032 420.26Q1059.76 376.01, 1104 403.77Q1125.88 353.65, 1176 375.53Q1243.01 322.54, 1296 389.56Q1363.96 337.52, 1416 405.49Q1458.25 327.74, 1536 369.99z" fill="#356cb1"></path><path d="M1488 560L0 560 L0 574.89Q48.76 503.65, 120 552.41Q172 484.41, 240 536.42Q264.67 489.09, 312 513.76Q369.16 498.92, 384 556.09Q436.7 536.79, 456 589.48Q482.22 495.7, 576 521.93Q575.74 449.66, 648 449.4Q752.8 482.2, 720 587Q708.41 503.41, 792 491.83Q835.38 415.2, 912 458.58Q1002.13 476.72, 984 566.85Q1055.94 518.79, 1104 590.73Q1119.25 485.98, 1224 501.23Q1253.64 458.88, 1296 488.52Q1373.14 445.66, 1416 522.8Q1480.96 515.76, 1488 580.72z" fill="white"></path></g><defs><mask id="SvgjsMask1060"><rect width="1440" height="560" fill="#ffffff"></rect></mask></defs></svg>